<svg width="114" height="31" viewBox="0 0 114 31" fill="none" xmlns="http://www.w3.org/2000/svg">
<path d="M8.88636 24.3409C7.09091 24.3409 5.54545 23.9773 4.25 23.25C2.96212 22.5152 1.9697 21.4773 1.27273 20.1364C0.575758 18.7879 0.227273 17.1932 0.227273 15.3523C0.227273 13.5568 0.575758 11.9811 1.27273 10.625C1.9697 9.26894 2.95076 8.21212 4.21591 7.45454C5.48864 6.69697 6.98106 6.31818 8.69318 6.31818C9.8447 6.31818 10.9167 6.50379 11.9091 6.875C12.9091 7.23864 13.7803 7.78788 14.5227 8.52273C15.2727 9.25758 15.8561 10.1818 16.2727 11.2955C16.6894 12.4015 16.8977 13.697 16.8977 15.1818V16.5114H2.15909V13.5114H12.3409C12.3409 12.8144 12.1894 12.197 11.8864 11.6591C11.5833 11.1212 11.1629 10.7008 10.625 10.3977C10.0947 10.0871 9.47727 9.93182 8.77273 9.93182C8.03788 9.93182 7.38636 10.1023 6.81818 10.4432C6.25758 10.7765 5.81818 11.2273 5.5 11.7955C5.18182 12.3561 5.01894 12.9811 5.01136 13.6705V16.5227C5.01136 17.3864 5.17045 18.1326 5.48864 18.7614C5.81439 19.3902 6.27273 19.875 6.86364 20.2159C7.45455 20.5568 8.1553 20.7273 8.96591 20.7273C9.50379 20.7273 9.99621 20.6515 10.4432 20.5C10.8902 20.3485 11.2727 20.1212 11.5909 19.8182C11.9091 19.5152 12.1515 19.1439 12.3182 18.7045L16.7955 19C16.5682 20.0758 16.1023 21.0152 15.3977 21.8182C14.7008 22.6136 13.7992 23.2348 12.6932 23.6818C11.5947 24.1212 10.3258 24.3409 8.88636 24.3409ZM25.0341 24.3295C23.9205 24.3295 22.928 24.1364 22.0568 23.75C21.1856 23.3561 20.4962 22.7765 19.9886 22.0114C19.4886 21.2386 19.2386 20.2765 19.2386 19.125C19.2386 18.1553 19.4167 17.3409 19.7727 16.6818C20.1288 16.0227 20.6136 15.4924 21.2273 15.0909C21.8409 14.6894 22.5379 14.3864 23.3182 14.1818C24.1061 13.9773 24.9318 13.8333 25.7955 13.75C26.8106 13.6439 27.6288 13.5455 28.25 13.4545C28.8712 13.3561 29.322 13.2121 29.6023 13.0227C29.8826 12.8333 30.0227 12.553 30.0227 12.1818V12.1136C30.0227 11.3939 29.7955 10.8371 29.3409 10.4432C28.8939 10.0492 28.2576 9.85227 27.4318 9.85227C26.5606 9.85227 25.8674 10.0455 25.3523 10.4318C24.8371 10.8106 24.4962 11.2879 24.3295 11.8636L19.8523 11.5C20.0795 10.4394 20.5265 9.52273 21.1932 8.75C21.8598 7.9697 22.7197 7.37121 23.7727 6.95454C24.8333 6.5303 26.0606 6.31818 27.4545 6.31818C28.4242 6.31818 29.3523 6.43182 30.2386 6.65909C31.1326 6.88636 31.9242 7.23864 32.6136 7.71591C33.3106 8.19318 33.8598 8.80682 34.2614 9.55682C34.6629 10.2992 34.8636 11.1894 34.8636 12.2273V24H30.2727V21.5795H30.1364C29.8561 22.125 29.4811 22.6061 29.0114 23.0227C28.5417 23.4318 27.9773 23.7538 27.3182 23.9886C26.6591 24.2159 25.8977 24.3295 25.0341 24.3295ZM26.4205 20.9886C27.1326 20.9886 27.7614 20.8485 28.3068 20.5682C28.8523 20.2803 29.2803 19.8939 29.5909 19.4091C29.9015 18.9242 30.0568 18.375 30.0568 17.7614V15.9091C29.9053 16.0076 29.697 16.0985 29.4318 16.1818C29.1742 16.2576 28.8826 16.3295 28.5568 16.3977C28.2311 16.4583 27.9053 16.5152 27.5795 16.5682C27.2538 16.6136 26.9583 16.6553 26.6932 16.6932C26.125 16.7765 25.6288 16.9091 25.2045 17.0909C24.7803 17.2727 24.4508 17.5189 24.2159 17.8295C23.9811 18.1326 23.8636 18.5114 23.8636 18.9659C23.8636 19.625 24.1023 20.1288 24.5795 20.4773C25.0644 20.8182 25.678 20.9886 26.4205 20.9886ZM46.483 30.9091C44.9148 30.9091 43.5701 30.6932 42.4489 30.2614C41.3352 29.8371 40.4489 29.2576 39.7898 28.5227C39.1307 27.7879 38.7027 26.9621 38.5057 26.0455L42.983 25.4432C43.1193 25.7917 43.3352 26.1174 43.6307 26.4205C43.9261 26.7235 44.3163 26.9659 44.8011 27.1477C45.2936 27.3371 45.892 27.4318 46.5966 27.4318C47.6496 27.4318 48.517 27.1742 49.1989 26.6591C49.8883 26.1515 50.233 25.2992 50.233 24.1023V20.9091H50.0284C49.8163 21.3939 49.4981 21.8523 49.0739 22.2841C48.6496 22.7159 48.1042 23.0682 47.4375 23.3409C46.7708 23.6136 45.9754 23.75 45.0511 23.75C43.7405 23.75 42.5473 23.447 41.4716 22.8409C40.4034 22.2273 39.5511 21.2917 38.9148 20.0341C38.286 18.7689 37.9716 17.1705 37.9716 15.2386C37.9716 13.2614 38.2936 11.6098 38.9375 10.2841C39.5814 8.95833 40.4375 7.96591 41.5057 7.30682C42.5814 6.64773 43.7595 6.31818 45.0398 6.31818C46.017 6.31818 46.8352 6.48485 47.4943 6.81818C48.1534 7.14394 48.6837 7.55303 49.0852 8.04545C49.4943 8.5303 49.8087 9.00758 50.0284 9.47727H50.2102V6.54545H55.017V24.1705C55.017 25.6553 54.6534 26.8977 53.9261 27.8977C53.1989 28.8977 52.1913 29.6477 50.9034 30.1477C49.6231 30.6553 48.1496 30.9091 46.483 30.9091ZM46.5852 20.1136C47.3655 20.1136 48.0246 19.9205 48.5625 19.5341C49.108 19.1402 49.5246 18.5795 49.8125 17.8523C50.108 17.1174 50.2557 16.2386 50.2557 15.2159C50.2557 14.1932 50.1117 13.3068 49.8239 12.5568C49.536 11.7992 49.1193 11.2121 48.5739 10.7955C48.0284 10.3788 47.3655 10.1705 46.5852 10.1705C45.7898 10.1705 45.1193 10.3864 44.5739 10.8182C44.0284 11.2424 43.6155 11.8333 43.3352 12.5909C43.0549 13.3485 42.9148 14.2235 42.9148 15.2159C42.9148 16.2235 43.0549 17.0947 43.3352 17.8295C43.6231 18.5568 44.036 19.1212 44.5739 19.5227C45.1193 19.9167 45.7898 20.1136 46.5852 20.1136ZM63.7102 0.727272V24H58.8693V0.727272H63.7102ZM75.5426 24.3409C73.7472 24.3409 72.2017 23.9773 70.9062 23.25C69.6184 22.5152 68.6259 21.4773 67.929 20.1364C67.232 18.7879 66.8835 17.1932 66.8835 15.3523C66.8835 13.5568 67.232 11.9811 67.929 10.625C68.6259 9.26894 69.607 8.21212 70.8722 7.45454C72.1449 6.69697 73.6373 6.31818 75.3494 6.31818C76.5009 6.31818 77.5729 6.50379 78.5653 6.875C79.5653 7.23864 80.4366 7.78788 81.179 8.52273C81.929 9.25758 82.5123 10.1818 82.929 11.2955C83.3456 12.4015 83.554 13.697 83.554 15.1818V16.5114H68.8153V13.5114H78.9972C78.9972 12.8144 78.8456 12.197 78.5426 11.6591C78.2396 11.1212 77.8191 10.7008 77.2812 10.3977C76.7509 10.0871 76.1335 9.93182 75.429 9.93182C74.6941 9.93182 74.0426 10.1023 73.4744 10.4432C72.9138 10.7765 72.4744 11.2273 72.1562 11.7955C71.8381 12.3561 71.6752 12.9811 71.6676 13.6705V16.5227C71.6676 17.3864 71.8267 18.1326 72.1449 18.7614C72.4706 19.3902 72.929 19.875 73.5199 20.2159C74.1108 20.5568 74.8116 20.7273 75.6222 20.7273C76.16 20.7273 76.6525 20.6515 77.0994 20.5C77.5464 20.3485 77.929 20.1212 78.2472 19.8182C78.5653 19.5152 78.8078 19.1439 78.9744 18.7045L83.4517 19C83.2244 20.0758 82.7585 21.0152 82.054 21.8182C81.357 22.6136 80.4555 23.2348 79.3494 23.6818C78.2509 24.1212 76.982 24.3409 75.5426 24.3409ZM101.236 11.5227L96.804 11.7955C96.7282 11.4167 96.5653 11.0758 96.3153 10.7727C96.0653 10.4621 95.7358 10.2159 95.3267 10.0341C94.9252 9.8447 94.4441 9.75 93.8835 9.75C93.1335 9.75 92.5009 9.90909 91.9858 10.2273C91.4706 10.5379 91.2131 10.9545 91.2131 11.4773C91.2131 11.8939 91.3797 12.2462 91.7131 12.5341C92.0464 12.822 92.6184 13.053 93.429 13.2273L96.5881 13.8636C98.285 14.2121 99.5502 14.7727 100.384 15.5455C101.217 16.3182 101.634 17.3333 101.634 18.5909C101.634 19.7348 101.296 20.7386 100.622 21.6023C99.9555 22.4659 99.0388 23.1402 97.8722 23.625C96.7131 24.1023 95.3759 24.3409 93.8608 24.3409C91.5502 24.3409 89.7093 23.8598 88.3381 22.8977C86.9744 21.928 86.1752 20.6098 85.9403 18.9432L90.7017 18.6932C90.8456 19.3977 91.1941 19.9356 91.7472 20.3068C92.3002 20.6705 93.0085 20.8523 93.8722 20.8523C94.7206 20.8523 95.4025 20.6894 95.9176 20.3636C96.4403 20.0303 96.7055 19.6023 96.7131 19.0795C96.7055 18.6402 96.5199 18.2803 96.1562 18C95.7926 17.7121 95.232 17.4924 94.4744 17.3409L91.4517 16.7386C89.7472 16.3977 88.4782 15.8068 87.6449 14.9659C86.8191 14.125 86.4062 13.053 86.4062 11.75C86.4062 10.6288 86.7093 9.66288 87.3153 8.85227C87.929 8.04167 88.7888 7.41667 89.8949 6.97727C91.0085 6.53788 92.3116 6.31818 93.804 6.31818C96.0085 6.31818 97.7434 6.78409 99.0085 7.71591C100.281 8.64773 101.024 9.91667 101.236 11.5227Z" fill="#161616"/>
<path d="M109.892 24.4432C108.767 24.4432 107.801 24.0455 106.994 23.25C106.199 22.4432 105.801 21.4773 105.801 20.3523C105.801 19.2386 106.199 18.2841 106.994 17.4886C107.801 16.6932 108.767 16.2955 109.892 16.2955C110.983 16.2955 111.938 16.6932 112.756 17.4886C113.574 18.2841 113.983 19.2386 113.983 20.3523C113.983 21.1023 113.79 21.7898 113.403 22.4148C113.028 23.0284 112.534 23.5227 111.92 23.8977C111.307 24.2614 110.631 24.4432 109.892 24.4432Z" fill="#EB5757"/>
</svg>
